<svg width="256" height="290" viewBox="0 0 256 290" fill="none" xmlns="http://www.w3.org/2000/svg">
<g clip-path="url(#clip0_153_15)">
<path d="M127.844 289.088L23.6619 260.166L0.444946 -0.234009H255.555L232.314 260.126L127.844 289.088Z" fill="#264DE4"/>
<path d="M212.417 243.547L232.277 21.057H128V266.95L212.417 243.547Z" fill="#2965F1"/>
<path d="M53.669 117.636L56.531 149.573H128V117.636H53.669ZM47.917 52.995L50.82 84.932H128V52.995H47.917ZM128 200.58L127.86 200.617L92.292 191.013L90.018 165.542H57.958L62.432 215.688L127.853 233.848L128 233.808V200.58Z" fill="#EBEBEB"/>
<path d="M202.127 117.636L207.892 52.995H127.89V84.932H172.892L169.986 117.636H127.89V149.573H167.217L163.509 190.993L127.889 200.607V233.833L193.362 215.688L193.842 210.292L201.348 126.212L202.127 117.636Z" fill="white"/>
</g>
<defs>
<clipPath id="clip0_153_15">
<rect width="256" height="290" fill="white"/>
</clipPath>
</defs>
</svg>
