<svg width="256" height="290" viewBox="0 0 256 290" fill="none" xmlns="http://www.w3.org/2000/svg">
<g clip-path="url(#clip0_153_9)">
<path d="M255.555 -0.234009L232.314 260.126L127.844 289.088L23.662 260.166L0.445007 -0.234009H255.555Z" fill="#E44D26"/>
<path d="M128 266.95L212.417 243.547L232.277 21.057H128V266.95Z" fill="#F16529"/>
<path d="M82.82 84.932H128V52.995H47.917L48.681 61.563L56.531 149.573H128V117.636H85.739L82.82 84.932ZM90.018 165.542H57.958L62.432 215.688L127.853 233.848L128 233.808V200.58L127.86 200.617L92.292 191.013L90.018 165.542Z" fill="#EBEBEB"/>
<path d="M127.89 149.573H167.217L163.509 190.993L127.889 200.607V233.833L193.362 215.688L193.842 210.292L201.348 126.212L202.127 117.636H127.89V149.573ZM127.89 84.854V84.932H205.033L205.673 77.754L207.129 61.563L207.892 52.995H127.89V84.854Z" fill="white"/>
</g>
<defs>
<clipPath id="clip0_153_9">
<rect width="256" height="290" fill="white"/>
</clipPath>
</defs>
</svg>
