<svg width="384" height="192" viewBox="0 0 384 192" fill="none" xmlns="http://www.w3.org/2000/svg">
<g clip-path="url(#clip0_153_34)">
<path d="M30.316 40.492H87.132C103.808 40.632 115.892 45.44 123.384 54.908C130.876 64.376 133.348 77.308 130.804 93.704C129.816 101.196 127.624 108.544 124.232 115.752C120.98 122.96 116.46 129.46 110.664 135.256C103.596 142.604 96.036 147.268 87.98 149.248C79.924 151.228 71.584 152.216 62.964 152.216H37.524L29.468 192.496H0L30.316 40.492ZM55.12 64.66L42.4 128.26C43.248 128.4 44.096 128.472 44.944 128.472H47.912C61.48 128.612 72.788 127.272 81.832 124.444C90.876 121.476 96.956 111.16 100.064 93.492C102.608 78.652 100.064 70.1 92.432 67.84C84.94 65.58 75.544 64.52 64.236 64.66C62.54 64.8 60.916 64.872 59.36 64.872H54.908L55.12 64.66ZM164.372 0H193.628L185.36 40.492H211.648C226.064 40.776 236.804 43.744 243.872 49.396C251.08 55.048 253.2 65.792 250.232 81.62L236.028 152.216H206.348L219.916 84.8C221.328 77.732 220.904 72.716 218.644 69.748C216.384 66.78 211.508 65.296 204.016 65.296L180.484 65.084L163.1 152.216H133.844L164.372 0ZM281.648 40.492H338.464C355.14 40.632 367.224 45.44 374.716 54.908C382.208 64.376 384.68 77.308 382.136 93.704C381.148 101.196 378.956 108.544 375.564 115.752C372.312 122.96 367.792 129.46 361.996 135.256C354.928 142.604 347.368 147.268 339.312 149.248C331.256 151.228 322.916 152.216 314.296 152.216H288.856L280.8 192.496H251.332L281.648 40.492ZM306.452 64.66L293.732 128.26C294.58 128.4 295.428 128.472 296.276 128.472H299.244C312.812 128.612 324.12 127.272 333.164 124.444C342.208 121.476 348.288 111.16 351.396 93.492C353.94 78.652 351.396 70.1 343.764 67.84C336.272 65.58 326.876 64.52 315.568 64.66C313.872 64.8 312.248 64.872 310.692 64.872H306.24L306.452 64.66Z" fill="black"/>
</g>
<defs>
<clipPath id="clip0_153_34">
<rect width="384" height="192" fill="white"/>
</clipPath>
</defs>
</svg>
