<svg width="282" height="336" viewBox="0 0 282 336" fill="none" xmlns="http://www.w3.org/2000/svg">
<g clip-path="url(#clip0_153_21)">
<path d="M143.052 200.4C137.28 203.052 130.956 206.508 118.296 213.456C113.496 216.156 108.48 218.856 103.812 221.4C103.488 221.076 103.152 220.668 102.828 220.332C77.7841 193.572 31.4641 174.672 33.4321 138.732C34.1641 125.64 38.6641 91.272 122.388 49.536C191.292 15.576 246.12 24.984 255.588 45.852C269.196 75.6 226.2 130.956 155.04 138.984C147.164 140.581 139.03 140.388 131.239 138.419C123.448 136.45 116.199 132.755 110.028 127.608C106.26 123.516 105.696 123.276 104.304 124.092C102.012 125.292 103.488 129 104.304 131.124C107.018 136.039 110.691 140.359 115.104 143.83C119.516 147.301 124.58 149.852 129.996 151.332C157.999 157.385 187.196 154.493 213.468 143.064C256.596 126.372 290.268 79.968 280.404 41.064C270.504 1.61996 205.032 -11.388 143.088 10.62C104.295 23.6927 68.4544 44.2717 37.6081 71.184C3.48007 103.104 -1.91992 130.848 0.288078 142.464C8.23208 183.708 65.0881 210.552 87.8881 230.436C86.6881 231.096 85.6801 231.636 84.7801 232.152C73.4041 237.804 30.0361 260.472 19.2241 284.448C6.94808 311.616 21.1921 331.092 30.6001 333.708C44.7779 337.104 59.6624 335.988 73.1751 330.515C86.6877 325.042 98.1538 315.485 105.972 303.18C112.611 292.976 116.688 281.32 117.856 269.202C119.024 257.084 117.248 244.864 112.68 233.58C115.375 231.43 118.25 229.515 121.272 227.856C127.08 224.424 132.612 221.04 137.52 218.424C154.325 210.553 172.663 206.5 191.22 206.556C230.172 211.14 237.864 235.44 236.388 245.676C235.698 249.308 234.237 252.749 232.105 255.769C229.973 258.789 227.219 261.318 224.028 263.184C221.328 264.9 220.428 265.476 220.668 266.7C220.992 268.5 222.3 268.416 224.592 268.092C230.444 266.242 235.6 262.666 239.383 257.832C243.165 252.998 245.396 247.133 245.784 241.008C246.984 217.008 224.1 190.68 183.588 190.92C171.458 190.941 159.448 193.334 148.236 197.964C146.436 198.708 144.688 199.508 142.992 200.364L143.052 200.4ZM85.1521 294.468C72.2161 308.544 54.2161 313.86 46.4401 309.36C38.0401 304.56 41.3641 283.74 57.2401 268.848C66.6428 260.376 76.8057 252.788 87.6001 246.18C89.4841 244.98 92.2681 243.396 95.6161 241.38L96.5161 240.888L98.4841 239.688C101.316 249.181 101.573 259.256 99.2306 268.882C96.888 278.508 92.0293 287.338 85.1521 294.468Z" fill="#CD6799"/>
</g>
<defs>
<clipPath id="clip0_153_21">
<rect width="282" height="336" fill="white"/>
</clipPath>
</defs>
</svg>
