<svg width="388" height="384" viewBox="0 0 388 384" fill="none" xmlns="http://www.w3.org/2000/svg">
<g clip-path="url(#clip0_153_38)">
<path d="M3.43213 134.416C3.43213 134.416 -6.03787 127.59 5.32613 118.476L31.7981 94.804C31.7981 94.804 39.3741 86.834 47.3821 93.778L291.68 278.736V367.428C291.68 367.428 291.562 381.356 273.688 379.816L3.43213 134.416Z" fill="#2489CA"/>
<path d="M66.4001 191.584L3.43211 248.83C3.43211 248.83 -3.03989 253.644 3.43211 262.246L32.6661 288.836C32.6661 288.836 39.6101 296.294 49.8681 287.81L116.624 237.192L66.4001 191.584Z" fill="#1070B3"/>
<path d="M176.948 192.058L292.43 103.878L291.68 15.6599C291.68 15.6599 286.748 -3.59411 270.296 6.42789L116.624 146.29L176.948 192.058Z" fill="#0877B9"/>
<path d="M273.688 379.936C280.396 386.8 288.524 384.552 288.524 384.552L378.518 340.206C390.038 332.354 388.42 322.61 388.42 322.61V57.796C388.42 46.156 376.504 42.134 376.504 42.134L298.506 4.53396C281.462 -6.00004 270.296 6.42796 270.296 6.42796C270.296 6.42796 284.656 -3.90804 291.68 15.66V365.81C291.691 368.198 291.165 370.558 290.142 372.716C288.09 376.858 283.632 380.724 272.94 379.106L273.688 379.936Z" fill="#3C99D4"/>
</g>
<defs>
<clipPath id="clip0_153_38">
<rect width="388" height="384" fill="white"/>
</clipPath>
</defs>
</svg>
