<svg width="1920" height="1080" viewBox="0 0 1920 1080" fill="none" xmlns="http://www.w3.org/2000/svg">
<g clip-path="url(#clip0_1_2)">
<rect width="1920" height="1080" fill="#343434"/>
<path opacity="0.0714286" d="M35.3521 904.334C181.727 1199.63 452.951 1435.1 767.693 1338.82C958.911 1280.33 934.041 938.771 1130.61 984.747C1303.22 1025.12 1286.23 1256.67 1355.13 1375.71C1424.03 1494.75 1737.41 1159.19 1774.6 920.368C1805.23 723.694 1769.67 562.419 1614.3 431.714C1398.69 250.32 1134.44 671.057 900.875 512.943C580.324 295.946 1395.69 -261.656 1054.81 -445.482C754.735 -607.301 508.28 -303.429 290.354 -50.7238C37.9945 241.911 -138.397 553.812 35.3521 904.334Z" stroke="#2B2B2B" stroke-width="5"/>
<path opacity="0.142857" d="M52.8925 802.545C166.412 1092.94 402.528 1337.21 707.079 1272.34C892.106 1232.92 896.908 908.914 1078.34 968.418C1237.66 1020.67 1202.5 1237.54 1257.59 1355.42C1312.67 1473.3 1635.72 1182.75 1690.52 960.692C1735.64 777.819 1715.46 622.871 1579.86 486.886C1391.68 298.166 1107.89 673.038 900.86 504.785C616.735 273.874 1431.18 -184.688 1125.16 -386.003C855.765 -563.217 598.399 -297.044 372.149 -76.7566C110.148 178.338 -81.8571 457.842 52.8925 802.545Z" stroke="#2B2B2B" stroke-width="5"/>
<path opacity="0.214286" d="M79.9155 707.609C162.599 989.75 364.239 1238.59 655.653 1202.59C832.697 1180.72 863.926 876.689 1029.44 947.458C1174.78 1009.6 1123.87 1210.48 1165.89 1325.75C1207.91 1441.01 1535.31 1194.5 1605.09 990.348C1662.55 822.226 1656.38 674.992 1540.22 536.12C1379.02 343.391 1081.55 672.354 900.963 497.313C653.125 257.086 1455.95 -107.038 1185.1 -321.252C946.671 -509.821 682.98 -280.822 452.298 -92.3851C185.167 125.826 -18.2305 372.705 79.9155 707.609Z" stroke="#2B2B2B" stroke-width="5"/>
<path opacity="0.285714" d="M115.39 620.407C169.578 891.257 337.836 1140.64 613.532 1130.71C781.027 1124.68 835.249 842.627 984.338 922.373C1115.25 992.397 1051.09 1176.28 1080.94 1287.61C1110.79 1398.94 1437.48 1194.88 1519.56 1009.47C1587.17 856.785 1593.49 718.459 1496.2 578.989C1361.17 385.432 1055.72 669.104 901.101 490.522C688.898 245.436 1470.2 -29.9307 1234.32 -252.545C1026.68 -448.507 761.062 -255.654 529.674 -98.0773C261.725 84.3972 51.0676 298.905 115.39 620.407Z" stroke="#2B2B2B" stroke-width="5"/>
<path opacity="0.357143" d="M158.205 541.693C186.523 798.565 322.922 1044.69 580.708 1057.81C737.323 1065.78 810.97 807.268 943.401 893.705C1059.69 969.605 984.82 1135.81 1003.52 1242C1022.23 1348.2 1343.44 1184.51 1435.14 1018.34C1510.66 881.5 1527.89 753.072 1448.63 615.167C1338.63 423.782 1030.69 663.414 901.198 484.397C723.486 238.715 1474.29 45.4504 1272.66 -181.207C1095.18 -380.728 831.802 -222.52 603.218 -94.4166C338.517 53.9277 124.591 236.782 158.205 541.693Z" stroke="#2B2B2B" stroke-width="5"/>
<path opacity="0.428571" d="M207.188 472.085C212.5 712.665 318.962 952 557.053 984.983C701.703 1005.02 791.123 771.152 906.932 862.03C1008.62 941.828 925.604 1089.97 934.291 1189.99C942.977 1290.02 1254.34 1164.1 1352.98 1017.35C1434.21 896.504 1460.67 778.754 1398.39 644.425C1311.96 458.001 1006.7 655.441 901.176 478.917C756.35 236.655 1468.68 117.982 1300.12 -108.56C1151.74 -307.98 894.476 -182.477 671.955 -82.0924C414.273 34.1533 200.882 186.513 207.188 472.085Z" stroke="#2B2B2B" stroke-width="5"/>
<path opacity="0.5" d="M261.115 412.062C246.48 634.431 325.287 863.767 542.317 913.299C674.17 943.392 775.678 734.815 875.166 827.945C962.526 909.721 873.886 1039.72 873.78 1132.7C873.673 1225.67 1171.22 1134.49 1274.16 1007.02C1358.93 902.056 1392.91 795.552 1346.35 666.632C1281.73 487.715 984.01 645.366 900.965 474.05C786.994 238.935 1453.96 186.613 1316.81 -35.9048C1196.08 -231.782 948.491 -136.644 734.999 -61.8913C487.773 24.6728 278.486 148.107 261.115 412.062Z" stroke="#2B2B2B" stroke-width="5"/>
<path opacity="0.571429" d="M318.729 361.959C287.355 564.606 341.109 781.084 536.136 843.776C654.622 881.863 764.549 698.78 848.265 792.066C921.775 873.979 829.993 986.069 822.389 1071.28C814.784 1156.48 1095.01 1096.62 1199.7 987.994C1285.92 898.54 1325.68 803.631 1293.38 681.758C1248.57 512.622 962.821 633.395 900.497 469.758C814.963 245.182 1430.83 250.37 1323.02 35.4924C1228.12 -153.66 993.387 -86.1881 791.569 -34.6848C557.862 24.9564 355.971 121.414 318.729 361.959Z" stroke="#2B2B2B" stroke-width="5"/>
<path opacity="0.642857" d="M378.758 321.965C333.951 503.798 365.529 704.939 538.039 777.375C642.846 821.383 757.593 663.553 826.322 755.016C886.672 835.329 794.135 930.023 780.381 1006.92C766.628 1083.82 1026.52 1051.52 1130.53 960.997C1216.19 886.45 1259.99 803.271 1240.37 689.872C1213.13 532.496 943.325 619.755 899.71 465.996C839.851 254.977 1400.07 308.376 1319.15 104.417C1247.93 -75.1231 1028.84 -32.31 840.992 -1.4188C623.463 34.3535 431.945 106.126 378.758 321.965Z" stroke="#2B2B2B" stroke-width="5"/>
<path opacity="0.714286" d="M439.926 292.123C385.044 452.475 397.551 636.208 547.455 714.994C638.527 762.859 754.61 629.614 809.357 717.42C857.43 794.52 766.405 872.608 747.883 940.828C729.362 1009.05 966.44 1000.29 1067.48 926.864C1150.7 866.393 1196.83 794.865 1188.14 691.138C1176.07 547.184 925.682 604.691 898.547 462.714C861.306 267.864 1362.56 359.855 1305.76 169.719C1255.76 2.34723 1054.67 23.7721 882.713 36.8999C683.588 52.102 505.071 101.783 439.926 292.123Z" stroke="#2B2B2B" stroke-width="5"/>
<path opacity="0.785714" d="M500.969 272.333C439.373 410.96 436.096 575.639 563.718 657.449C641.254 707.152 755.351 597.418 797.321 679.895C834.174 752.316 746.78 814.845 724.884 874.196C702.988 933.546 915.31 944.107 1011.28 886.506C1090.32 839.07 1137.12 778.91 1137.51 685.813C1138.06 556.612 910.022 588.46 896.959 459.853C879.031 283.353 1319.25 404.141 1283.5 230.326C1252.02 77.3213 1070.83 80.837 916.295 79.2164C737.346 77.3398 574.084 107.781 500.969 272.333Z" stroke="#2B2B2B" stroke-width="5"/>
<path opacity="0.857143" d="M560.655 262.352C495.661 379.428 480.013 523.849 586.081 605.472C650.521 655.062 759.519 567.381 790.094 643.044C816.941 709.483 735.121 757.735 711.237 808.202C687.352 858.668 873.542 884.173 962.534 840.905C1035.82 805.273 1081.71 756 1089.27 674.244C1099.76 560.782 896.444 571.332 894.904 457.353C892.79 300.927 1271.17 440.684 1253.14 285.256C1237.28 148.435 1077.41 137.675 941.43 124.441C783.961 109.116 637.805 123.381 560.655 262.352Z" stroke="#2B2B2B" stroke-width="5"/>
<path opacity="0.928571" d="M617.796 261.8C552.626 357.907 528.1 481.313 613.723 559.7C665.742 607.323 766.772 539.882 787.49 607.451C805.682 666.782 731.179 702.254 706.664 743.992C682.149 785.73 841.404 821.732 921.738 791.099C987.896 765.871 1031.37 726.817 1044.13 656.86C1061.84 559.772 885.015 553.586 892.346 455.147C902.409 320.05 1219.37 469.06 1215.58 333.626C1212.24 214.406 1074.66 193.105 957.936 171.464C822.772 146.404 695.153 147.719 617.796 261.8Z" stroke="#2B2B2B" stroke-width="5"/>
<path d="M671.26 270.167C609.002 346.279 579.113 448.368 645.76 520.667C686.251 564.592 776.732 515.256 789.26 573.667C800.261 624.958 734.593 649.334 710.76 682.667C686.927 716.001 819.017 758.04 889.26 738.167C947.108 721.802 986.785 692.124 1002.76 634.167C1024.93 553.734 875.769 535.502 889.26 453.167C907.776 340.171 1164.94 488.967 1171.76 374.667C1177.76 274.052 1062.92 245.984 965.76 219.167C853.246 188.114 745.162 179.822 671.26 270.167Z" stroke="#2B2B2B" stroke-width="5"/>
</g>
<defs>
<clipPath id="clip0_1_2">
<rect width="1920" height="1080" fill="white"/>
</clipPath>
</defs>
</svg>
