<svg width="1920" height="1080" viewBox="0 0 1920 1080" fill="none" xmlns="http://www.w3.org/2000/svg">
<g clip-path="url(#clip0_1_3)">
<rect width="1920" height="1080" fill="#313131"/>
<path opacity="0.0416667" d="M-121.627 1887.35C-168.631 2400.47 862.385 2705.83 1265.56 2300.1C1653.81 1909.4 389.888 1164.24 911.195 979.428C1258.36 856.351 1421.49 1423.07 1773.52 1315.15C2158.99 1196.99 2223.23 823.004 2289.83 435.329L2291.05 428.221C2413.91 -286.863 1695.27 -1562.13 1334.28 -1140.33C973.294 -718.54 428.596 -405.959 135.349 236.507C-138.232 835.885 -74.6232 1374.22 -121.627 1887.35Z" stroke="#343434" stroke-width="5"/>
<path opacity="0.0833333" d="M-184.333 1746.71C-272.868 2237.64 695.502 2619.29 1118.41 2262.05C1525.65 1918.03 369.761 1092.52 887.961 958.333C1233.06 868.969 1342.62 1429.34 1691.13 1355.01C2072.74 1273.63 2166.18 918.354 2263.04 550.078L2264.82 543.325C2443.5 -135.975 1858.01 -1426.68 1474.42 -1050.38C1090.84 -674.075 539.324 -418.633 202.472 176.229C-111.789 731.195 -95.7973 1255.78 -184.333 1746.71Z" stroke="#343434" stroke-width="5"/>
<path opacity="0.125" d="M-232.196 1605.11C-358.775 2070.62 541.743 2520.07 979.101 2211.57C1400.27 1914.5 356.497 1021.59 866.865 936.039C1206.75 879.069 1265.11 1428.21 1607.01 1386.02C1981.39 1339.81 2101.27 1005.41 2225.55 658.764L2227.83 652.408C2457.08 13.0098 2001.8 -1279.95 1600.71 -949.776C1199.62 -619.6 646.962 -420.041 272.485 124.653C-76.877 632.817 -105.618 1139.59 -232.196 1605.11Z" stroke="#343434" stroke-width="5"/>
<path opacity="0.166667" d="M-265.509 1464.06C-426.408 1901.39 402.045 2409.81 848.693 2149.79C1278.81 1899.39 349.837 952.109 847.97 912.794C1179.71 886.613 1189.67 1420.01 1522.11 1408.22C1886.12 1395.31 2029.56 1083.59 2178.25 760.461L2180.98 754.536C2455.27 158.519 2126.02 -1124.16 1712.43 -840.212C1298.85 -556.264 750.452 -410.791 344.433 81.8464C-34.3555 541.445 -104.61 1026.72 -265.509 1464.06Z" stroke="#343434" stroke-width="5"/>
<path opacity="0.208333" d="M-284.714 1325.03C-476.028 1731.86 277.157 2290.26 728.097 2077.9C1162.34 1873.41 349.457 884.725 831.317 888.848C1152.22 891.594 1116.98 1405.14 1437.35 1421.77C1788.14 1439.99 1952.13 1152.43 2122.12 854.354L2125.23 848.888C2438.81 299.076 2230.26 -961.534 1809.07 -723.403C1387.89 -485.271 848.82 -391.585 417.373 47.7759C14.8608 457.67 -93.3993 918.209 -284.714 1325.03Z" stroke="#343434" stroke-width="5"/>
<path opacity="0.25" d="M-290.394 1189.43C-508.084 1563.89 167.638 2163.17 618.085 1997.19C1051.86 1837.36 354.974 820.023 816.916 864.449C1124.55 894.035 1047.64 1384.04 1353.6 1426.91C1688.61 1473.86 1870.08 1211.6 2058.18 939.742L2061.63 934.757C2408.62 433.311 2314.34 -794.304 1890.28 -601.086C1466.21 -407.869 941.181 -363.209 490.381 22.3129C69.8142 381.979 -72.7039 814.973 -290.394 1189.43Z" stroke="#343434" stroke-width="5"/>
<path opacity="0.291667" d="M-283.269 1058.55C-523.212 1399.24 73.851 2030.33 519.285 1908.98C948.228 1792.13 365.954 758.54 804.754 839.841C1096.98 893.984 982.21 1357.24 1271.71 1423.98C1588.7 1497.06 1784.53 1260.87 1987.53 1016.05L1991.26 1011.56C2365.71 559.971 2378.35 -624.674 1955.91 -475.005C1533.46 -325.336 1026.75 -326.53 562.568 5.23431C129.515 314.748 -43.3249 717.855 -283.269 1058.55Z" stroke="#343434" stroke-width="5"/>
<path opacity="0.333333" d="M-264.176 933.601C-522.218 1239.61 -4.03279 1893.53 432.171 1814.64C852.226 1738.67 381.912 700.759 794.792 815.264C1069.75 891.519 921.168 1325.29 1192.47 1413.38C1489.54 1509.83 1696.63 1300.16 1911.3 1082.81L1915.24 1078.83C2311.23 677.939 2422.58 -454.798 2005.99 -346.879C1589.4 -238.961 1104.85 -282.476 633.083 -3.76945C192.955 256.245 -6.13504 627.595 -264.176 933.601Z" stroke="#343434" stroke-width="5"/>
<path opacity="0.375" d="M-234.067 815.676C-506.067 1086.53 -66.0327 1754.54 357.069 1715.56C764.506 1678.01 402.325 647.101 786.966 790.946C1043.12 886.741 864.938 1288.8 1116.61 1395.59C1392.18 1512.52 1607.47 1329.47 1830.64 1139.71L1834.73 1136.23C2246.39 786.235 2447.53 -286.756 2040.73 -218.395C1633.92 -150.034 1174.91 -232.03 701.125 -5.09217C259.114 206.626 37.9328 544.827 -234.067 815.676Z" stroke="#343434" stroke-width="5"/>
<path opacity="0.416667" d="M-193.987 705.751C-475.87 941.427 -112.354 1615.11 294.149 1613.13C685.602 1611.22 426.632 597.926 781.19 767.108C1017.31 879.776 813.868 1248.39 1044.8 1371.17C1297.66 1505.61 1518.15 1348.95 1746.71 1186.55L1750.9 1183.57C2172.5 884.026 2453.94 -122.535 2060.51 -91.1829C1667.09 -59.8308 1236.48 -176.215 765.949 0.796898C326.979 165.938 87.8965 470.074 -193.987 705.751Z" stroke="#343434" stroke-width="5"/>
<path opacity="0.458333" d="M-145.065 604.668C-432.867 805.59 -143.382 1476.92 243.433 1508.75C615.926 1539.4 454.249 553.525 777.357 743.953C992.534 870.77 768.236 1204.72 977.627 1340.73C1206.91 1489.66 1429.72 1358.84 1660.68 1223.24L1664.92 1220.75C2090.95 970.637 2442.72 35.9935 2065.89 33.1985C1689.06 30.4036 1289.2 -116.083 826.873 13.3579C395.549 134.118 142.738 403.746 -145.065 604.668Z" stroke="#343434" stroke-width="5"/>
<path opacity="0.5" d="M-88.4978 513.136C-378.41 680.135 -159.671 1341.57 204.793 1403.78C555.764 1463.69 484.569 514.125 775.339 721.673C968.98 859.891 728.241 1158.46 915.624 1304.93C1120.8 1465.32 1343.18 1359.52 1573.7 1249.84L1577.93 1247.83C2003.14 1045.55 2414.97 187.09 2057.56 153.278C1700.15 119.466 1332.88 -52.7012 883.287 31.9888C463.848 110.999 201.414 346.136 -88.4978 513.136Z" stroke="#343434" stroke-width="5"/>
<path opacity="0.541667" d="M-25.5368 431.722C-313.944 566.022 -161.94 1210.59 177.96 1299.55C505.276 1385.22 516.973 479.88 774.991 700.439C946.82 847.322 694.01 1110.31 859.226 1264.49C1040.13 1433.32 1259.5 1351.42 1486.9 1266.53L1491.07 1264.98C1910.52 1108.4 2371.97 329.167 2036.38 267.688C1700.8 206.208 1367.39 12.8595 934.654 56.0346C530.938 96.3141 262.871 297.421 -25.5368 431.722Z" stroke="#343434" stroke-width="5"/>
<path opacity="0.583333" d="M42.5302 360.849C-240.993 464.035 -151.056 1085.39 162.527 1197.33C464.5 1305.12 550.838 450.879 776.151 680.407C926.2 833.263 665.591 1060.93 808.788 1220.14C965.586 1394.47 1179.55 1335.12 1401.35 1273.6L1405.42 1272.47C1814.55 1159 2315.12 460.802 2003.32 375.176C1691.53 289.55 1392.76 79.5365 980.52 84.7941C595.925 89.6992 326.054 257.662 42.5302 360.849Z" stroke="#343434" stroke-width="5"/>
<path opacity="0.625" d="M114.393 300.792C-161.136 374.778 -128.021 967.261 157.956 1098.32C433.346 1224.52 585.542 427.138 778.646 661.71C907.245 817.924 642.96 1011.01 764.58 1172.65C897.751 1349.64 1104.15 1311.24 1318.1 1271.44L1322.02 1270.71C1716.67 1197.31 2245.96 580.749 1959.48 474.619C1673 368.489 1409.11 146.289 1020.51 117.53C657.972 90.7008 389.922 226.805 114.393 300.792Z" stroke="#343434" stroke-width="5"/>
<path opacity="0.666667" d="M188.735 251.679C-75.9885 298.677 -93.9622 857.376 163.591 1003.65C411.61 1144.5 620.471 408.608 782.287 644.46C890.051 801.527 626.02 961.204 726.784 1122.79C837.118 1299.73 1034.01 1280.5 1238.11 1260.57L1241.85 1260.21C1618.33 1223.46 2166.13 687.954 1906.05 565.033C1645.96 442.112 1416.69 212.106 1054.35 153.479C716.305 98.7825 453.458 204.682 188.735 251.679Z" stroke="#343434" stroke-width="5"/>
<path opacity="0.708333" d="M264.248 213.494C12.8149 235.969 -50.1116 756.752 178.664 914.351C398.969 1066.12 655.029 395.172 786.882 628.747C874.69 784.298 614.604 912.156 695.494 1071.37C784.067 1245.7 969.777 1243.68 1162.28 1241.6L1165.81 1241.56C1520.9 1237.72 2077.39 781.56 1844.31 645.582C1611.24 509.603 1415.82 276.026 1081.82 191.857C770.222 113.333 515.681 191.018 264.248 213.494Z" stroke="#343434" stroke-width="5"/>
<path opacity="0.75" d="M339.651 186.074C103.642 186.711 2.20773 666.253 202.304 831.359C394.993 990.351 688.642 386.652 792.227 614.639C861.21 766.469 608.476 864.473 670.715 1019.15C738.865 1188.52 911.982 1201.62 1091.44 1215.21L1094.73 1215.46C1425.74 1240.52 1981.5 860.916 1775.63 715.584C1569.75 570.252 1406.97 337.135 1102.84 231.875C819.102 133.674 575.659 185.437 339.651 186.074Z" stroke="#343434" stroke-width="5"/>
<path opacity="0.791667" d="M413.699 169.121C194.884 150.779 61.6 586.589 233.558 755.49C399.15 918.138 720.768 382.806 798.118 602.18C849.63 748.274 607.339 818.729 652.366 966.918C701.67 1129.18 861.065 1155.2 1026.29 1182.17L1029.32 1182.66C1334.09 1232.42 1880.33 925.579 1701.4 774.519C1522.46 623.46 1390.66 394.588 1117.37 272.744C862.406 159.072 632.514 187.464 413.699 169.121Z" stroke="#343434" stroke-width="5"/>
<path opacity="0.833333" d="M485.203 162.203C284.968 127.87 126.614 518.297 271.394 687.446C410.813 850.331 750.896 383.34 804.347 591.39C839.942 729.943 610.837 775.454 640.284 915.418C672.528 1068.67 817.357 1105.33 967.487 1143.33L970.24 1144.03C1247.16 1214.13 1775.72 975.317 1623.06 822.031C1470.39 668.746 1367.52 447.613 1125.49 313.687C899.688 188.744 685.437 196.535 485.203 162.203Z" stroke="#343434" stroke-width="5"/>
<path opacity="0.875" d="M553.04 164.76C372.385 117.514 195.763 461.75 314.719 627.8C429.271 787.703 778.56 387.904 810.708 582.265C832.117 711.702 618.561 735.132 634.223 865.37C651.373 1007.98 781.084 1052.96 915.543 1099.58L918.008 1100.44C1166.02 1186.45 1669.53 1010.11 1542.06 857.93C1414.6 705.751 1338.24 495.516 1127.34 353.945C930.594 221.869 733.694 212.006 553.04 164.76Z" stroke="#343434" stroke-width="5"/>
<path opacity="0.916667" d="M616.168 176.119C455.7 119.078 267.54 417.144 362.395 576.997C453.738 730.931 803.339 396.105 816.999 574.781C826.096 693.771 630.053 698.192 633.861 817.456C638.031 948.048 752.362 999.024 870.879 1051.87L873.052 1052.83C1091.66 1150.31 1563.57 1030.14 1459.87 882.191C1356.17 734.239 1303.58 537.696 1123.17 392.79C954.868 257.601 776.636 233.161 616.168 176.119Z" stroke="#343434" stroke-width="5"/>
<path opacity="0.958333" d="M673.636 195.497C533.57 131.776 340.44 384.505 413.25 535.345C483.364 680.6 824.861 407.505 823.024 568.888C821.801 676.361 644.815 665.005 638.804 772.311C632.223 889.809 731.2 944.482 833.8 1001.16L835.681 1002.2C1024.93 1106.74 1459.64 1035.81 1377.92 894.953C1296.2 754.101 1264.37 573.644 1113.3 429.529C972.354 295.078 813.701 259.219 673.636 195.497Z" stroke="#343434" stroke-width="5"/>
<path d="M724.594 222.016C604.761 154.682 412.978 363.689 466.094 503.016C517.243 637.184 842.811 421.633 828.594 564.516C819.126 659.669 662.314 635.882 648.594 730.516C633.57 834.138 717.499 890.266 804.499 948.449L806.094 949.516C966.567 1056.84 1359.43 1027.68 1297.59 896.516C1235.76 765.349 1221.47 602.952 1098.09 463.516C982.994 333.431 844.427 289.349 724.594 222.016Z" stroke="#343434" stroke-width="5"/>
</g>
<defs>
<clipPath id="clip0_1_3">
<rect width="1920" height="1080" fill="white"/>
</clipPath>
</defs>
</svg>
