<svg width="1200" height="1080" viewBox="0 0 1200 1080" fill="none" xmlns="http://www.w3.org/2000/svg">
<g clip-path="url(#clip0_72_2)">
<rect width="1200" height="1080" fill="#343434"/>
<path opacity="0.0416667" d="M-350.092 -207.891C-765.112 325.932 -461.295 1831.15 181.423 1678.83C391.951 1628.93 423.425 1414.87 631.235 1356.27C1032.29 1243.18 1283.61 1850.67 1697.88 1784.45C2252.16 1695.84 2673.17 1208.54 2543.04 577.589C2368.96 -266.457 748.878 1513.3 603.466 666.378C526.788 219.783 1155.99 73.1786 972.932 -347.586C733.755 -897.345 -26.5592 -624.038 -350.092 -207.891Z" stroke="#313131" stroke-width="5"/>
<path opacity="0.0833333" d="M-236.675 -289.053C-681.259 189.42 -516.301 1661.87 115.115 1569.2C321.939 1538.85 370.349 1335.69 575.296 1296.74C970.83 1221.57 1161.26 1826.6 1565.54 1797.59C2106.45 1758.77 2552.86 1325.52 2481.04 708.076C2384.96 -117.908 675.217 1457.54 606.974 631.188C570.988 195.441 1188.91 107.135 1048.36 -312.678C864.73 -861.196 109.905 -662.052 -236.675 -289.053Z" stroke="#313131" stroke-width="5"/>
<path opacity="0.125" d="M-120.127 -356.102C-587.903 66.0623 -553.73 1493.41 61.0435 1457.23C262.417 1445.39 326.113 1254.41 526.408 1234.15C912.964 1195.05 1044.9 1791.81 1435.96 1797.75C1959.19 1805.71 2424.9 1427.12 2408.03 828.363C2385.45 27.3857 608.872 1396.87 613.084 597.865C615.305 176.539 1216.74 143.429 1117.11 -271.343C986.928 -813.273 244.532 -685.204 -120.127 -356.102Z" stroke="#313131" stroke-width="5"/>
<path opacity="0.166667" d="M-1.98562 -409.098C-486.649 -43.5246 -574.13 1327.53 19.1298 1344.24C213.456 1349.72 290.702 1171.98 484.702 1169.3C859.108 1164.13 935.479 1747.18 1310.42 1785.57C1812.07 1836.93 2291.08 1512.95 2325.34 937.597C2371.17 167.922 550.158 1332.17 621.537 566.624C659.176 162.942 1239.37 181.473 1178.67 -224.44C1099.37 -754.795 375.839 -694.084 -1.98562 -409.098Z" stroke="#313131" stroke-width="5"/>
<path opacity="0.208333" d="M116.252 -448.259C-379.133 -138.9 -578.218 1165.94 -10.8414 1231.51C175.007 1252.99 264.001 1089.34 450.221 1102.99C809.613 1129.34 833.837 1693.72 1190.08 1761.8C1666.72 1852.88 2153.19 1582.85 2234.38 1035.08C2342.99 302.307 499.29 1264.34 632.054 537.651C702.062 154.459 1256.76 220.684 1232.68 -172.861C1201.21 -687.057 502.434 -689.423 116.252 -448.259Z" stroke="#313131" stroke-width="5"/>
<path opacity="0.25" d="M233.138 -473.958C-267.005 -219.803 -566.873 1010.2 -29.2145 1120.28C146.9 1156.33 245.8 1007.42 422.925 1036.03C764.766 1091.24 740.686 1632.48 1076.02 1727.29C1524.68 1854.15 2012.99 1636.83 2136.59 1120.28C2301.94 429.26 456.386 1194.28 644.344 511.097C743.457 150.846 1268.92 260.483 1278.83 -117.524C1291.77 -611.417 623.03 -672.087 233.138 -473.958Z" stroke="#313131" stroke-width="5"/>
<path opacity="0.291667" d="M347.294 -486.709C-151.91 -286.151 -541.126 861.782 -36.4567 1011.71C128.851 1060.82 235.797 927.081 402.693 969.173C724.791 1050.41 656.62 1564.55 969.192 1683.01C1387.4 1841.51 1872.22 1675.09 2033.45 1192.81C2249.14 547.637 421.469 1122.89 658.105 487.082C782.887 151.812 1275.94 300.305 1316.94 -59.3566C1370.52 -529.281 736.453 -643.056 347.294 -486.709Z" stroke="#313131" stroke-width="5"/>
<path opacity="0.333333" d="M457.421 -487.162C-35.4688 -338.034 -502.135 722.005 -33.1493 906.927C120.47 967.5 233.605 849.152 389.322 903.178C689.847 1007.44 582.101 1491.1 870.445 1630C1256.24 1815.85 1732.57 1698 1926.45 1252.46C2185.8 656.432 394.464 1051.05 673.029 465.692C819.92 157.022 1277.94 339.606 1346.94 0.710673C1437.09 -442.08 841.657 -603.416 457.421 -487.162Z" stroke="#313131" stroke-width="5"/>
<path opacity="0.375" d="M562.314 -476.094C80.7382 -375.714 -451.181 592.043 -19.9793 806.944C121.264 877.336 238.756 774.4 382.538 838.75C660.027 962.94 517.463 1413.3 780.493 1569.37C1132.42 1778.18 1595.65 1706.13 1817.06 1299.18C2113.25 754.783 375.207 979.633 688.804 446.976C854.168 166.098 1275.13 377.86 1368.83 61.7536C1491.26 -351.262 937.731 -554.346 562.314 -476.094Z" stroke="#313131" stroke-width="5"/>
<path opacity="0.416667" d="M660.875 -454.393C195.188 -399.615 -389.642 472.917 2.27019 712.695C130.644 791.235 250.71 703.532 381.992 776.559C635.357 917.496 462.907 1332.34 699.917 1502.27C1017.03 1729.63 1462.96 1700.16 1706.73 1333.07C2032.84 841.988 363.444 909.452 705.119 430.953C885.29 178.634 1267.73 414.578 1382.73 122.87C1532.99 -258.267 1023.91 -497.095 660.875 -454.393Z" stroke="#313131" stroke-width="5"/>
<path opacity="0.458333" d="M752.122 -423.049C306.434 -410.314 -318.981 365.478 32.7313 625.009C147.937 710.021 268.861 637.18 387.274 717.222C615.801 871.7 418.505 1249.4 629.166 1429.92C911.025 1671.44 1335.92 1680.98 1596.89 1354.39C1946 917.501 358.838 841.296 721.669 417.606C912.995 194.188 1256.05 449.302 1388.85 183.184C1562.36 -164.517 1099.56 -432.977 752.122 -423.049Z" stroke="#313131" stroke-width="5"/>
<path opacity="0.5" d="M835.196 -383.14C413.117 -408.536 -240.725 270.405 70.4633 544.611C172.395 634.429 292.549 575.902 397.913 661.305C601.259 826.126 384.196 1165.67 568.549 1353.54C815.207 1604.91 1215.84 1649.56 1488.9 1363.55C1854.19 980.94 360.973 775.896 738.152 406.885C937.044 212.3 1240.41 481.614 1387.48 241.86C1579.64 -71.3966 1164.23 -363.342 835.196 -383.14Z" stroke="#313131" stroke-width="5"/>
<path opacity="0.541667" d="M909.372 -335.816C513.981 -395.137 -156.444 188.203 114.464 472.109C203.202 565.104 321.061 520.175 413.387 609.308C591.57 781.328 359.796 1082.29 518.236 1274.39C730.223 1531.4 1103.87 1607.02 1384.05 1361.08C1758.87 1032.09 369.362 713.929 754.282 398.71C957.255 232.49 1221.19 511.14 1379.01 298.107C1585.22 19.7626 1217.6 -289.572 909.372 -335.816Z" stroke="#313131" stroke-width="5"/>
<path opacity="0.583333" d="M974.063 -282.286C607.888 -371.093 -67.7373 119.196 163.684 407.992C239.487 502.589 353.649 470.391 433.128 561.67C586.517 737.833 344.998 1000.38 478.259 1193.69C656.557 1452.34 1001.03 1554.59 1283.56 1347.68C1661.51 1070.88 383.454 656.006 769.783 392.971C973.499 254.269 1198.8 537.554 1363.91 351.191C1579.63 107.694 1259.52 -213.055 974.063 -282.286Z" stroke="#313131" stroke-width="5"/>
<path opacity="0.625" d="M1028.83 -223.8C693.826 -337.49 23.7894 63.5287 217.037 352.626C280.337 447.322 389.534 426.851 456.53 518.758C585.828 696.132 339.379 920.98 448.513 1112.68C594.532 1369.16 908.189 1493.58 1188.53 1324.12C1563.56 1097.43 402.64 602.667 784.398 389.53C985.704 277.14 1173.67 560.578 1342.7 400.442C1563.54 191.213 1289.98 -135.173 1028.83 -223.8Z" stroke="#313131" stroke-width="5"/>
<path opacity="0.666667" d="M1073.36 -161.638C770.919 -295.501 116.542 21.1684 273.418 306.255C324.804 399.637 427.916 389.77 482.957 480.868C589.183 656.683 342.406 845.09 428.762 1032.53C544.304 1283.32 826.064 1425.37 1099.99 1291.32C1466.43 1112 426.261 554.377 797.889 388.223C993.853 300.608 1146.27 579.988 1315.98 445.259C1537.72 269.225 1309.13 -57.2828 1073.36 -161.638Z" stroke="#313131" stroke-width="5"/>
<path opacity="0.708333" d="M1107.52 -97.0882C838.437 -246.382 208.958 -8.09315 331.711 268.992C371.919 359.754 467.986 359.266 511.752 448.22C596.215 619.896 353.447 773.625 418.64 954.398C505.867 1196.27 755.194 1351.4 1018.81 1250.27C1371.46 1114.99 453.619 511.519 810.04 388.863C997.986 324.185 1117.06 595.613 1284.42 485.116C1503.09 340.743 1317.28 19.2952 1107.52 -97.0882Z" stroke="#313131" stroke-width="5"/>
<path opacity="0.75" d="M1131.29 -31.4368C895.8 -191.443 299.521 -24.6322 390.806 240.831C420.707 327.785 508.936 335.372 542.241 420.959C606.519 586.137 371.779 707.415 417.662 879.36C479.054 1109.42 695.956 1273.15 945.774 1202.06C1279.96 1106.97 483.985 474.394 820.66 391.241C998.194 347.393 1086.54 607.339 1248.71 519.569C1460.6 404.892 1314.87 93.2979 1131.29 -31.4368Z" stroke="#313131" stroke-width="5"/>
<path opacity="0.791667" d="M1144.81 34.0505C942.587 -132.042 386.784 -28.9884 449.613 221.638C470.193 303.732 549.964 318.025 573.75 399.151C619.653 555.719 396.594 647.197 425.229 808.429C463.541 1024.15 648.554 1192.11 881.506 1147.84C1193.13 1088.61 516.607 443.218 829.584 395.131C994.622 369.775 1055.2 615.104 1209.6 548.26C1411.35 460.922 1302.46 163.53 1144.81 34.0505Z" stroke="#313131" stroke-width="5"/>
<path opacity="0.833333" d="M1148.37 98.144C978.533 -69.5595 469.379 -21.8533 507.071 211.162C519.417 287.487 590.291 307.077 605.601 382.788C635.15 528.905 427.017 593.609 440.635 742.537C458.856 941.797 613.022 1109.77 826.503 1088.79C1112.09 1060.73 550.72 418.119 836.675 400.294C987.464 390.894 1023.52 618.909 1167.87 570.918C1356.46 508.214 1280.76 228.879 1148.37 98.144Z" stroke="#313131" stroke-width="5"/>
<path opacity="0.875" d="M1082.36 159.663C943.532 -5.3861 486.039 -4.06202 502.165 209.036C507.447 278.838 569.162 302.295 577.133 371.785C592.517 505.896 402.111 547.178 403.082 682.519C404.381 863.601 529.224 1027.61 721.118 1026.18C977.822 1024.26 525.556 399.136 781.825 406.475C916.959 410.345 932.005 618.803 1064.29 587.363C1237.12 546.285 1190.59 288.329 1082.36 159.663Z" stroke="#313131" stroke-width="5"/>
<path opacity="0.916667" d="M1067.34 217.49C957.639 59.0955 555.606 23.4194 553.934 214.784C553.386 277.467 605.863 303.361 607.7 365.983C611.247 486.838 440.895 508.319 431.688 629.11C419.369 790.725 516.859 947.068 685.555 961.248C911.228 980.217 560.354 386.222 784.955 413.414C903.391 427.753 901.114 614.892 1019.67 597.507C1174.57 574.793 1152.86 340.968 1067.34 217.49Z" stroke="#313131" stroke-width="5"/>
<path opacity="0.958333" d="M983.963 270.586C901.066 122.529 557.051 59.5083 541.484 227.83C536.385 282.964 579.722 309.885 576.684 365.153C570.822 471.818 422.353 477.33 405.499 582.935C382.948 724.23 455.468 869.521 599.878 895.269C793.061 929.714 534.366 379.246 726.019 420.845C827.08 442.781 811.304 607.334 914.81 601.355C1050.05 593.542 1048.59 386.005 983.963 270.586Z" stroke="#313131" stroke-width="5"/>
<path d="M953 318C894.173 183.6 609.478 103.019 584 247.5C575.655 294.826 610.121 321.402 603.5 369C590.721 460.86 465.446 454.389 443.5 544.5C414.137 665.065 464.439 796.285 584 829.5C743.942 873.933 566.872 377.992 725 428.5C808.383 455.134 783.007 596.338 870.5 599C984.816 602.478 998.859 422.773 953 318Z" stroke="#313131" stroke-width="5"/>
</g>
<defs>
<clipPath id="clip0_72_2">
<rect width="1200" height="1080" fill="white"/>
</clipPath>
</defs>
</svg>
