<svg width="1200" height="873" viewBox="0 0 1200 873" fill="none" xmlns="http://www.w3.org/2000/svg">
<g clip-path="url(#clip0_72_67)">
<rect width="1200" height="873" fill="#313131"/>
<path opacity="0.0416667" d="M-383.471 185.178C-1020.26 121.858 438.4 2448.22 832.933 1943.29C1227.47 1438.36 1757.45 1898.45 1896.71 1447.24C2019.84 1048.29 1538.31 848.454 1500.41 424.615C1456.06 -71.3672 2112.91 -394.28 1809.16 -791.409C1502.57 -1192.24 1017.22 -936.766 573.605 -756.747C90.477 -560.696 253.323 248.499 -383.471 185.178Z" stroke="#343434" stroke-width="5"/>
<path opacity="0.0833333" d="M-304.353 82.3962C-909.788 -31.6683 293.763 2321.21 714.59 1870.09C1135.42 1418.98 1605.07 1904.55 1776.55 1483.57C1928.17 1111.35 1483.12 879.389 1482.38 469.81C1481.52 -9.4853 2138.64 -264.086 1880.68 -670.326C1620.31 -1080.35 1133.34 -876.049 692.733 -740.601C212.887 -593.091 301.083 196.461 -304.353 82.3962Z" stroke="#343434" stroke-width="5"/>
<path opacity="0.125" d="M-218.749 -8.51802C-789.006 -168.377 166.269 2184.94 607.135 1788.26C1048 1391.58 1457.06 1895.75 1656.6 1507.05C1833.02 1163.38 1426.25 904.066 1459.9 511.877C1499.28 52.9329 2149.97 -135.84 1936.99 -546.354C1722.03 -960.694 1238.52 -805.838 805.193 -713.025C333.272 -611.947 351.508 151.341 -218.749 -8.51802Z" stroke="#343434" stroke-width="5"/>
<path opacity="0.166667" d="M-128.075 -87.2083C-659.952 -287.647 56.4227 2041.46 511.177 1699.15C965.93 1356.84 1314.85 1872.91 1538.18 1518.06C1735.65 1204.32 1368.42 922.482 1433.43 550.44C1509.51 115.071 2147.48 -10.9922 1978.21 -421.156C1807.35 -835.143 1332.08 -727.529 909.971 -675.024C450.272 -617.843 403.803 113.231 -128.075 -87.2083Z" stroke="#343434" stroke-width="5"/>
<path opacity="0.208333" d="M-33.7556 -153.477C-524.69 -389.087 -35.4959 1892.84 427.169 1604.19C889.833 1315.54 1179.76 1837.02 1422.58 1517.1C1637.28 1234.24 1310.3 934.704 1403.44 585.17C1512.43 176.141 2131.91 109.095 2004.6 -296.357C1876.11 -705.587 1413.47 -642.569 1006.18 -627.692C562.613 -611.491 457.179 82.1338 -33.7556 -153.477Z" stroke="#343434" stroke-width="5"/>
<path opacity="0.25" d="M62.7896 -207.277C-385.282 -472.527 -109.428 1741.1 355.408 1504.79C820.244 1268.48 1052.99 1789.19 1310.99 1504.79C1539.11 1253.33 1252.56 940.873 1370.43 615.801C1508.35 235.399 2104.11 223.163 2016.63 -173.518C1928.32 -573.897 1482.31 -552.432 1093.05 -572.197C669.121 -593.722 510.861 57.973 62.7896 -207.277Z" stroke="#343434" stroke-width="5"/>
<path opacity="0.291667" d="M160.164 -248.715C-243.77 -538.019 -165.534 1588.28 296.034 1402.4C757.601 1216.52 935.586 1730.65 1204.51 1481.88C1442.29 1261.92 1195.84 941.196 1334.92 642.123C1497.67 292.144 2065.08 330.071 2014.88 -54.1253C1964.22 -441.903 1538.41 -458.604 1169.97 -509.762C768.732 -565.475 564.098 40.5895 160.164 -248.715Z" stroke="#343434" stroke-width="5"/>
<path opacity="0.333333" d="M257.009 -278.042C-102.152 -585.832 -204.182 1436.31 249.031 1298.43C702.244 1160.55 828.453 1662.71 1104.15 1449.21C1347.92 1260.45 1140.75 935.945 1297.45 663.984C1480.83 345.731 2015.89 428.8 2000.12 60.4287C1984.2 -311.377 1581.7 -362.566 1236.47 -441.655C860.503 -527.786 616.17 29.748 257.009 -278.042Z" stroke="#343434" stroke-width="5"/>
<path opacity="0.375" d="M352.018 -295.651C37.6408 -616.444 -225.946 1287.09 214.232 1194.29C654.41 1101.48 732.332 1586.74 1010.81 1407.73C1257.04 1249.45 1087.84 925.453 1258.56 681.295C1458.35 395.578 1957.71 518.469 1973.22 168.857C1988.88 -184.015 1612.3 -265.777 1292.21 -369.17C943.619 -481.771 666.395 25.1409 352.018 -295.651Z" stroke="#343434" stroke-width="5"/>
<path opacity="0.416667" d="M443.95 -302.07C173.764 -630.53 -231.589 1142.4 191.323 1091.31C614.236 1040.22 647.808 1504.19 925.267 1358.44C1170.59 1229.58 1037.63 910.104 1218.8 694.023C1430.8 441.163 1891.79 598.335 1935.2 269.989C1979.02 -61.4175 1630.47 -169.656 1337 -293.616C1017.4 -428.616 714.136 26.3912 443.95 -302.07Z" stroke="#343434" stroke-width="5"/>
<path opacity="0.458333" d="M531.645 -297.947C304.48 -628.955 -222.057 1003.91 179.85 990.794C581.756 977.681 575.295 1416.52 848.172 1302.44C1089.44 1201.57 990.592 890.333 1178.68 702.198C1398.78 482.04 1819.42 667.807 1887.16 362.788C1955.53 54.9262 1636.62 -75.57 1370.8 -216.296C1081.31 -369.556 758.811 33.0618 531.645 -297.947Z" stroke="#343434" stroke-width="5"/>
<path opacity="0.5" d="M614.034 -284.049C428.175 -612.757 -198.457 873.156 179.224 893.961C556.905 914.766 515.042 1325.23 780.054 1240.85C1014.37 1166.24 947.136 866.617 1138.74 705.903C1362.95 517.834 1741.96 726.444 1830.32 446.354C1919.51 163.654 1631.32 15.1839 1393.71 -138.497C1134.94 -305.864 799.893 44.6582 614.034 -284.049Z" stroke="#343434" stroke-width="5"/>
<path opacity="0.541667" d="M690.149 -261.245C543.379 -583.129 -162.046 751.535 188.736 801.945C539.519 852.355 467.131 1231.81 721.304 1174.85C946.035 1124.49 907.612 839.472 1099.47 705.281C1323.98 548.25 1660.76 773.958 1765.96 519.936C1872.15 263.547 1615.24 101.393 1405.97 -61.4693C1178.06 -238.835 836.919 60.639 690.149 -261.245Z" stroke="#343434" stroke-width="5"/>
<path opacity="0.583333" d="M759.136 -230.493C648.776 -541.408 -114.215 640.274 207.564 715.783C529.343 791.291 431.477 1137.74 672.178 1105.64C884.998 1077.26 872.308 809.442 1061.36 700.526C1282.58 573.071 1577.21 810.219 1695.43 582.937C1814.76 353.536 1589.2 181.94 1407.95 13.5829C1210.55 -169.768 869.496 80.4209 759.136 -230.493Z" stroke="#343434" stroke-width="5"/>
<path opacity="0.625" d="M820.26 -192.833C743.222 -489.053 -56.4632 540.427 234.783 636.403C526.03 732.379 407.833 1044.46 632.797 1034.42C831.703 1025.54 841.45 777.094 1024.85 691.88C1239.46 592.162 1492.66 835.25 1620.11 634.917C1748.76 432.717 1554.12 255.815 1400.15 85.5153C1232.47 -99.9509 897.298 103.386 820.26 -192.833Z" stroke="#343434" stroke-width="5"/>
<path opacity="0.666667" d="M872.915 -149.368C825.753 -427.626 9.61445 452.868 269.383 564.619C529.151 676.37 395.798 953.359 603.146 962.382C786.476 970.359 815.193 743.009 990.359 679.632C1195.34 605.468 1408.47 849.223 1541.43 675.598C1675.63 500.355 1511 322.127 1383.19 153.259C1243.99 -30.648 920.077 128.889 872.915 -149.368Z" stroke="#343434" stroke-width="5"/>
<path opacity="0.708333" d="M916.626 -101.251C895.595 -358.773 82.3516 378.274 310.276 501.114C538.201 623.954 394.82 865.767 583.074 890.711C749.523 912.766 793.628 707.779 958.265 664.114C1150.93 613.016 1325.93 852.459 1460.8 704.865C1596.93 555.895 1460.95 380.111 1357.79 215.829C1245.44 36.9176 937.657 156.271 916.626 -101.251Z" stroke="#343434" stroke-width="5"/>
<path opacity="0.75" d="M951.054 -49.6706C952.167 -284.201 160.031 317.131 356.316 446.445C552.602 575.758 404.207 782.924 572.304 820.546C720.93 853.811 776.777 671.996 928.899 645.692C1106.91 614.912 1246.29 845.419 1379.64 722.763C1514.24 598.963 1405.14 429.137 1324.78 272.34C1237.27 101.578 949.941 184.86 951.054 -49.6706Z" stroke="#343434" stroke-width="5"/>
<path opacity="0.791667" d="M976.002 4.16361C995.094 -205.657 240.906 269.721 406.311 401.026C571.716 532.331 423.137 705.979 570.431 752.983C700.664 794.543 764.594 636.245 902.547 624.767C1063.98 611.336 1170.73 828.699 1299.35 729.495C1429.16 629.367 1344.79 468.718 1285.09 322.008C1220.07 162.234 956.909 213.984 976.002 4.16361Z" stroke="#343434" stroke-width="5"/>
<path opacity="0.833333" d="M931.409 59.0377C964.2 -124.904 263.222 236.127 399.038 365.136C534.853 494.145 390.671 635.969 516.935 689.055C628.573 735.991 696.969 601.099 819.447 601.766C962.773 602.548 1040.34 803.018 1161.26 725.421C1283.31 647.102 1221.15 498.509 1179.69 364.17C1134.53 217.866 898.617 242.979 931.409 59.0377Z" stroke="#343434" stroke-width="5"/>
<path opacity="0.875" d="M877.355 113.746C919.515 -43.704 285.24 216.228 393.258 338.906C501.276 461.585 365.763 573.813 471.182 629.721C564.39 679.154 633.728 567.109 739.786 577.137C863.896 588.871 916.108 769.208 1026.67 711.047C1138.26 652.343 1095.52 518.314 1069.64 398.277C1041.45 267.551 835.196 271.196 877.355 113.746Z" stroke="#343434" stroke-width="5"/>
<path opacity="0.916667" d="M874.057 167.108C921.266 36.2085 365.256 209.711 447.736 322.33C530.215 434.948 407.277 520.295 492.439 575.858C567.737 624.985 634.636 534.802 723.695 551.342C827.913 570.697 858.928 728.206 956.785 687.018C1055.55 645.445 1029.17 528.086 1016.04 423.913C1001.74 310.464 826.848 298.008 874.057 167.108Z" stroke="#343434" stroke-width="5"/>
<path opacity="0.958333" d="M801.861 217.982C849.878 113.145 381.621 216.069 441.248 315.254C500.875 414.439 394 476.063 459.882 528.246C518.134 574.384 579.401 504.667 651.253 524.853C735.334 548.475 749.57 681.037 832.739 654.111C916.684 626.934 903.393 527.923 900.032 440.789C896.37 345.895 753.845 322.82 801.861 217.982Z" stroke="#343434" stroke-width="5"/>
<path d="M781.245 265.282C825.964 185.488 452.765 234.613 492.605 317.392C532.446 400.171 444.658 441.619 492.605 487.564C534.999 528.187 587.677 477.159 642.481 498.149C706.614 522.711 708.677 628.805 775.554 613.225C843.054 597.5 839.435 518.073 842.767 448.753C846.396 373.258 736.526 345.075 781.245 265.282Z" stroke="#343434" stroke-width="5"/>
</g>
<defs>
<clipPath id="clip0_72_67">
<rect width="1200" height="873" fill="white"/>
</clipPath>
</defs>
</svg>
