<svg width="128" height="128" viewBox="0 0 128 128" fill="none" xmlns="http://www.w3.org/2000/svg">
<rect width="100" height="100" fill="#C12929"/>
<rect x="72" y="72" width="56" height="56" fill="#C12929"/>
<path d="M38.54 48.74C40.7 49.55 42.395 50.75 43.625 52.34C44.885 53.9 45.515 55.655 45.515 57.605C45.515 59.495 44.69 61.28 43.04 62.96C41.42 64.61 39.395 65.93 36.965 66.92C34.535 67.91 32.21 68.405 29.99 68.405C28.49 68.405 27.02 68.33 25.58 68.18C23.18 68.03 21.32 67.955 20 67.955H13.16V65.435L17.39 62.105V36.815L12.395 35.51L13.88 32.585H19.955C22.685 32.585 25.37 32.495 28.01 32.315C30.05 32.195 31.55 32.135 32.51 32.135C34.73 32.135 36.68 32.525 38.36 33.305C40.07 34.085 41.39 35.15 42.32 36.5C43.25 37.82 43.715 39.305 43.715 40.955C43.715 42.425 43.235 43.835 42.275 45.185C41.345 46.535 40.1 47.735 38.54 48.785V48.74ZM35.075 43.34C35.075 41.18 34.565 39.44 33.545 38.12C32.525 36.8 31.01 36.14 29 36.14C27.77 36.14 26.615 36.395 25.535 36.905V48.47H30.575C32.045 48.47 33.155 48.035 33.905 47.165C34.685 46.295 35.075 45.02 35.075 43.34ZM31.295 63.95C33.035 63.95 34.4 63.5 35.39 62.6C36.41 61.7 36.92 60.47 36.92 58.91C36.92 56.87 36.35 55.205 35.21 53.915C34.1 52.595 32.435 51.875 30.215 51.755H29.315H25.535V62.96C27.245 63.62 29.15 63.95 31.25 63.95H31.295ZM83.4465 60.125L84.6615 62.825L76.3815 67.91C74.9115 68.3 73.5015 68.555 72.1515 68.675C70.8015 68.825 69.3465 68.9 67.7865 68.9C64.1865 68.9 60.9915 68.135 58.2015 66.605C55.4115 65.075 53.2515 62.975 51.7215 60.305C50.1915 57.605 49.4265 54.545 49.4265 51.125C49.4265 47.615 50.5665 44.375 52.8465 41.405C55.1265 38.405 57.9615 36.05 61.3515 34.34C64.7715 32.6 68.0115 31.73 71.0715 31.73C72.9315 31.73 75.1215 31.955 77.6415 32.405C80.1615 32.855 82.0065 33.335 83.1765 33.845V44.555H78.9465C76.3065 39.455 72.8115 36.905 68.4615 36.905C66.5715 36.905 64.8465 37.43 63.2865 38.48C61.7565 39.53 60.5415 40.97 59.6415 42.8C58.7415 44.63 58.2915 46.685 58.2915 48.965C58.2915 51.635 58.7265 54.095 59.5965 56.345C60.4965 58.565 61.8465 60.35 63.6465 61.7C65.4465 63.02 67.6665 63.68 70.3065 63.68C70.4265 63.68 70.9815 63.68 71.9715 63.68C72.9615 63.68 74.0565 63.59 75.2565 63.41V54.41L68.0115 52.655L69.4965 49.73H87.6765V52.25L83.4465 55.85V60.125Z" fill="white"/>
</svg>
