<svg width="18" height="16" viewBox="0 0 18 16" fill="none" xmlns="http://www.w3.org/2000/svg">
<path d="M15.9882 0.501536C15.782 0.51654 15.5796 0.564924 15.3889 0.644798H15.3863C15.2032 0.717393 14.3327 1.08358 13.0093 1.63864L8.26686 3.63596C4.86389 5.06858 1.51875 6.47936 1.51875 6.47936L1.55858 6.46395C1.55858 6.46395 1.32795 6.53975 1.08704 6.70486C0.938203 6.79957 0.810132 6.92348 0.710572 7.06912C0.592364 7.24257 0.497284 7.5079 0.532618 7.78222C0.590437 8.24605 0.891095 8.52423 1.10695 8.67777C1.32538 8.83324 1.53353 8.90583 1.53353 8.90583H1.53867L4.67566 9.96263C4.81635 10.4143 5.6316 13.0945 5.82754 13.7119C5.94318 14.0806 6.05561 14.3113 6.1963 14.4873C6.2644 14.5772 6.34406 14.6524 6.43978 14.7128C6.48954 14.7417 6.5426 14.7646 6.59782 14.7809L6.5657 14.7732C6.57533 14.7757 6.58304 14.7834 6.59011 14.786C6.61581 14.7931 6.63315 14.7956 6.66592 14.8008C7.16252 14.9511 7.56147 14.6427 7.56147 14.6427L7.58395 14.6248L9.43608 12.9384L12.5403 15.3199L12.611 15.3501C13.2579 15.634 13.9132 15.476 14.2595 15.1972C14.6083 14.9164 14.7439 14.5573 14.7439 14.5573L14.7663 14.4995L17.1652 2.2104C17.2333 1.90718 17.2506 1.62322 17.1755 1.34762C17.0979 1.06869 16.919 0.828795 16.6737 0.674992C16.4678 0.549792 16.229 0.489361 15.9882 0.501536ZM15.9234 1.81852C15.9208 1.85899 15.9285 1.8545 15.9105 1.93223V1.9393L13.5342 14.1005C13.5239 14.1179 13.5065 14.1558 13.459 14.1937C13.4089 14.2335 13.369 14.2586 13.1603 14.1757L9.36349 11.2648L7.07 13.3553L7.55183 10.2781L13.7552 4.49618C14.0108 4.25848 13.9254 4.20837 13.9254 4.20837C13.9434 3.9167 13.5393 4.12292 13.5393 4.12292L5.71704 8.96879L5.71447 8.95594L1.96524 7.69356V7.69099L1.95561 7.68906C1.96218 7.68688 1.96861 7.68431 1.97488 7.68135L1.99544 7.67108L2.01535 7.66401C2.01535 7.66401 5.36306 6.25323 8.76603 4.82061C10.4698 4.10301 12.1863 3.38027 13.5065 2.82264C14.2895 2.49308 15.0733 2.16544 15.8578 1.83972C15.9105 1.81916 15.8855 1.81852 15.9234 1.81852Z" fill="white"/>
</svg>
