<svg width="24" height="16" viewBox="0 0 24 16" fill="none" xmlns="http://www.w3.org/2000/svg">
<path fill-rule="evenodd" clip-rule="evenodd" d="M23.3381 12.7101C22.7898 11.6059 22.0673 10.5972 21.1983 9.72267C20.9077 9.39422 20.6034 9.07813 20.2862 8.77524L20.2479 8.73795C20.1301 8.62357 20.0138 8.50765 19.8991 8.39022C21.087 6.73835 22.1035 4.96974 22.9329 3.11181L22.9662 3.03722L22.9894 2.9586C23.0992 2.59273 23.2242 1.89728 22.7807 1.26834C22.3211 0.619251 21.5864 0.502333 21.0935 0.502333H18.8287C18.3545 0.480723 17.8856 0.609674 17.4891 0.870732C17.0927 1.13179 16.7889 1.51158 16.6214 1.95574C16.134 3.11648 15.5238 4.22173 14.8011 5.2526V2.59878C14.8011 2.25609 14.7689 1.68159 14.401 1.19779C13.9615 0.617235 13.3255 0.502333 12.8841 0.502333H9.28989C8.82088 0.491542 8.36569 0.661544 8.01858 0.977133C7.67147 1.29272 7.45903 1.72972 7.42526 2.19763L7.42223 2.24299V2.28835C7.42223 2.77718 7.61575 3.13801 7.77097 3.36479C7.84051 3.46659 7.91409 3.55932 7.96146 3.61778L7.97154 3.63088C8.02194 3.69337 8.0552 3.73469 8.08846 3.78106C8.17716 3.89999 8.30314 4.08545 8.33943 4.56319V6.04784C7.61794 4.83968 7.02636 3.55855 6.57458 2.22586L6.56652 2.20368L6.55846 2.18252C6.43549 1.86099 6.23895 1.39332 5.84486 1.03652C5.38525 0.618243 4.84098 0.502333 4.3461 0.502333H2.04807C1.54714 0.502333 0.943402 0.619251 0.492867 1.09398C0.0503954 1.56164 0 2.12204 0 2.41837V2.55343L0.0282214 2.68445C0.664514 5.6384 1.97574 8.40504 3.85928 10.7679C4.72041 12.1258 5.88949 13.2617 7.2717 14.0834C8.65391 14.905 10.2103 15.3893 11.8147 15.497L11.856 15.5H11.8984C12.6301 15.5 13.3931 15.4365 13.9666 15.0545C14.7396 14.5385 14.8011 13.7473 14.8011 13.3522V12.2052C14.9997 12.3664 15.2456 12.5821 15.547 12.8724C15.9118 13.2372 16.2021 13.5537 16.4511 13.8299L16.5841 13.9771C16.7776 14.1927 16.9681 14.4054 17.1415 14.5798C17.3592 14.7985 17.6283 15.0394 17.9649 15.2178C18.3308 15.4103 18.7148 15.498 19.122 15.498H21.4211C21.9059 15.498 22.6003 15.3831 23.0892 14.8166C23.6213 14.1998 23.581 13.4429 23.4137 12.8996L23.3835 12.8018L23.3381 12.7101ZM17.5729 12.817C17.2605 12.4678 16.9389 12.127 16.6083 11.7949L16.6053 11.7919C15.2375 10.4736 14.5995 10.2448 14.148 10.2448C13.9071 10.2448 13.642 10.271 13.4697 10.4867C13.3921 10.5896 13.3412 10.7101 13.3215 10.8374C13.2972 10.9853 13.2864 11.1351 13.2893 11.2849V13.3522C13.2893 13.6092 13.2469 13.717 13.128 13.7956C12.9698 13.9015 12.6321 13.9871 11.9074 13.9871C10.5308 13.8935 9.19613 13.4744 8.01304 12.7644C6.82996 12.0544 5.83228 11.0738 5.10203 9.90309L5.09397 9.88999L5.08389 9.87789C3.32924 7.69391 2.10637 5.1319 1.51186 2.39418C1.51589 2.26315 1.54411 2.18352 1.59048 2.13514C1.63785 2.08475 1.75376 2.01419 2.04807 2.01419H4.3461C4.6011 2.01419 4.73414 2.07064 4.82989 2.15631C4.93673 2.25509 5.03148 2.42139 5.14436 2.71771C5.70879 4.37673 6.47077 5.92891 7.19344 7.06885C7.55427 7.63933 7.90905 8.11405 8.22957 8.44969C8.38982 8.617 8.54605 8.75609 8.69623 8.85487C8.84036 8.94961 9.00465 9.0252 9.17398 9.0252C9.26267 9.0252 9.36649 9.01512 9.46627 8.97178C9.57403 8.92418 9.66274 8.84186 9.71825 8.73795C9.82206 8.54846 9.85129 8.26927 9.85129 7.9034V4.50373C9.79787 3.67926 9.54892 3.21461 9.30702 2.88503C9.25803 2.8191 9.20762 2.75425 9.15583 2.6905L9.14273 2.67437C9.09975 2.62217 9.05873 2.56838 9.01977 2.51311C8.97015 2.45147 8.94029 2.3763 8.93409 2.29742C8.942 2.21733 8.98022 2.14328 9.04093 2.09045C9.10163 2.03761 9.18024 2.00997 9.26066 2.01319H12.8841C13.0917 2.01319 13.1613 2.06358 13.1965 2.11095C13.2469 2.17647 13.2893 2.31254 13.2893 2.59878V7.16259C13.2893 7.70484 13.5392 8.07172 13.9021 8.07172C14.3193 8.07172 14.6207 7.81874 15.1468 7.29261L15.1559 7.28253L15.164 7.27346C16.3442 5.83445 17.3085 4.23116 18.0264 2.51412L18.0305 2.50202C18.0844 2.35032 18.1865 2.22043 18.3212 2.13217C18.4558 2.0439 18.6157 2.00212 18.7763 2.01319H21.0945C21.409 2.01319 21.5118 2.09382 21.546 2.14119C21.5813 2.19159 21.6065 2.29943 21.546 2.51109C20.7181 4.36197 19.6947 6.119 18.4931 7.75221L18.485 7.76431C18.3691 7.94271 18.2411 8.14026 18.223 8.36603C18.2028 8.60994 18.3076 8.83068 18.4921 9.06854C18.6261 9.26609 18.9033 9.53722 19.1845 9.81238L19.2107 9.83858C19.505 10.1268 19.8245 10.4393 20.0805 10.7417L20.0876 10.7487L20.0947 10.7568C20.8581 11.5182 21.4929 12.3985 21.9744 13.3632C22.051 13.6253 22.0046 13.7604 21.9442 13.8299C21.8746 13.9105 21.7184 13.9861 21.4221 13.9861H19.122C18.9653 13.9899 18.8102 13.9535 18.6715 13.8803C18.5016 13.7814 18.3473 13.6578 18.2139 13.5134C18.0698 13.3693 17.9135 13.1949 17.722 12.9822L17.5739 12.817H17.5729Z" fill="white"/>
</svg>
